<?xml version="1.0" encoding="UTF-8" standalone="no"?> <svg id="artwork" xmlns="http://www.w3.org/2000/svg" viewBox="0 0 512 512"><title>sloth</title><g id="Sloth"><path d="M43.31,286.75l112.46,10.09c0,.45.09.89.12,1.34v.11c.1,1,.18,2,.25,3,.19,2.25.36,4.49.52,6.7v.26c.07.91.13,1.82.19,2.79s.13,2.06.18,3.08v.13l.09,1.65,0,.9c.13,2.44.24,4.86.33,7.28.07,1.69.12,3.35.16,5,0,.68,0,1.35.05,2v.12l0,1.5v.21c0,1.15.05,2.28.06,3.43l0,2.19c.07,10.46-.24,19.73-.91,27.57l-.57,6.51a41.16,41.16,0,0,0,.69,12.1,28.44,28.44,0,0,1-40.34-28.43l.56-6.53c.36-4.26.74-7.35,1.08-10.08.82-6.77,1.37-11.23.62-23.88a6.52,6.52,0,0,0-7-6.11h0a6.51,6.51,0,0,0-6,6.88c.69,11.4.24,15.09-.55,21.53-.34,2.84-.74,6-1.13,10.54l-.55,6.49a41.52,41.52,0,0,0,10.65,31.74,40.71,40.71,0,0,0,6.37,5.67c.81,19.44,14.16,34.58,30.6,34.58h26.39c5.37,10.52,15.08,17.47,26.22,17.47h31.55a7.25,7.25,0,0,0,7.25-7.25h0a6.9,6.9,0,0,0-4.52-6.53c-7.55-2.65-13.13-11.79-13.13-22.63v-.75a41.53,41.53,0,0,0,13.15-22.88l.12-.57c3.71-18.64,5.75-45.91,5.6-74.82v-.25c0-1.66,0-3.33-.05-5-.06-4.38-.18-8.92-.35-13.5,0-1.33-.1-2.67-.17-4,0-.87-.08-1.73-.13-2.51s-.08-1.72-.13-2.51c0-1-.1-1.94-.16-2.87-.08-1.3-.17-2.59-.26-3.87,0-.26,0-.52-.06-.77-.1-1.49-.21-3-.33-4.37,0-.32,0-.62-.07-.93-.08-.93-.16-1.86-.24-2.69-.1-1.23-.22-2.45-.34-3.66l0-.16c0-.13,0-.25,0-.38-.35-3.53-.74-6.94-1.17-10.21,16.66,5.77,51.34,15.72,92.36,15.72a236.83,236.83,0,0,0,31.23-2c0,.1,0,.2,0,.3-.25,12.16.07,24.74.93,37l-97.8-8.77a6.49,6.49,0,0,0-7.05,5.89h0a6.49,6.49,0,0,0,5.89,7.05L316,311.2c5,22.47,11.43,41.94,18.33,55.19l13.79,26.46a36.64,36.64,0,0,0,12.64,13.85c3.76,16.58,16.55,28.24,30.86,28.24a26.07,26.07,0,0,0,3.29-.21l11.7-1.46c5.58,7,13.48,11.32,22.27,11.32h31.55a7.24,7.24,0,0,0,7.25-7.25h0a6.9,6.9,0,0,0-4.52-6.53C455.56,428.16,450,419,450,408.18v0c.55-.66,1.09-1.34,1.6-2a37.68,37.68,0,0,0,5.32-33.78l-.26-.8c-3.12-9.93-4.67-29.26-4.59-48.11l23.4,2.09a6.49,6.49,0,0,0,7.05-5.89h0a6.49,6.49,0,0,0-5.89-7.05l-24.23-2.17c.55-11.85,1.8-22.5,3.77-29.16q.78-2.62,1.58-5.36l22,2a6.49,6.49,0,0,0,7-5.89h0a6.49,6.49,0,0,0-5.89-7.05l-19.55-1.76c6.64-24.19,12.8-51,12.8-67.23V176.45a109,109,0,0,0-109-109h-.33c-2.55.13-62.66,3.26-92.74,9.84l-13.73,2.43c-26.92,4.76-58.86,3.53-94.94-3.67-7.47-1.49-15.24-2.64-23.1-3.41-7.62-.74-15.45-1.13-23.3-1.16-50.59,0-91.75,38.2-91.75,85.16,0,.77,0,1.54,0,2.35v.14c0,.58,0,1.16.07,1.73.1,1.85.26,3.72.49,5.52.08.75.19,1.49.3,2.21s.25,1.61.4,2.41c.06.35.13.71.2,1.06l0,.12c.07.34.15.69.23,1s.16.81.26,1.21c.41,1.78.87,3.54,1.38,5.2.14.48.29,1,.44,1.43s.39,1.19.57,1.69c.87,2.51,1.87,5,3,7.43.19.43.4.86.61,1.29,1.18,2.44,2.48,4.82,3.82,7,.26.44.54.88.86,1.38a78.07,78.07,0,0,0,4.6,6.53c.29.39.6.78.88,1.13A87.36,87.36,0,0,0,50,214.86c.36.36.73.72,1,1,1.23,1.18,2.54,2.37,3.84,3.47.4.35.81.7,1.23,1,.12.11.25.21.38.31.37.31.74.61,1.12.9.94.75,1.94,1.51,3,2.29.54.39,1.09.77,1.6,1.12s.89.62,1.28.87l1.31.86q.69.45,1.38.87l.26.16-17.74-1.59a6.5,6.5,0,0,0-7.06,5.89h0a6.5,6.5,0,0,0,5.9,7l101,9.06c.09.44.19.88.29,1.33s.24,1.09.35,1.64l.13.63c.1.49.19,1,.29,1.45l0,.16c.22,1.09.44,2.19.64,3.31l.07.33.24,1.3,0,.24c0,.07,0,.15.05.22l0,.25c.11.58.21,1.18.32,1.81l.56,3.26c.14.88.29,1.77.43,2.71.2,1.27.39,2.53.58,3.8.27,1.8.52,3.6.77,5.39v.12c.14,1,.27,2,.39,3v.12c.11.73.2,1.47.28,2.2l0,.22c0,.19.05.38.07.57l.16,1.44L44.47,273.81a6.5,6.5,0,0,0-7.06,5.89h0A6.5,6.5,0,0,0,43.31,286.75ZM151.4,414.12c-7.37,0-13.84-6.27-16.44-15a41.39,41.39,0,0,0,26.7-2.2,41.68,41.68,0,0,0,5.38,7.43,40.65,40.65,0,0,0,6.37,5.66c.06,1.39.18,2.76.36,4.1ZM204,431.59c-7.38,0-13.84-6.26-16.44-15A41.11,41.11,0,0,0,212.71,415a39.47,39.47,0,0,0,6.64,16.57ZM359.6,386.85l-13.79-26.46c-6-11.5-11.67-28.32-16.25-48l36.59,3.28c.06.57.11,1.14.17,1.7.1.94.2,1.86.31,2.8l0,.38c.17,1.46.35,2.91.54,4.34l0,.34c.13,1,.27,2,.42,3.11s.3,2.05.46,3.09.3,2,.48,3.08l.23,1.43c.16,1,.34,2,.51,3s.35,2,.54,2.94c.37,1.93.75,3.84,1.14,5.67.18.89.38,1.75.58,2.62l0,.17c.2.91.42,1.82.64,2.7.1.45.21.89.33,1.35.22.93.46,1.84.69,2.68,1.19,4.43,2.48,8.54,3.85,12.23l10.41,28c.16.43.36.85.53,1.27a23.94,23.94,0,0,1-4.16,1l-.26,0A23.92,23.92,0,0,1,359.6,386.85Zm33.65,35c-6.24.78-12.4-3.05-16.34-9.38a35.91,35.91,0,0,0,3.88.23,37.15,37.15,0,0,0,4.07-.23l.43-.05a36.87,36.87,0,0,0,10.07-2.73,36.07,36.07,0,0,0,3.05,2.88,41.71,41.71,0,0,0,1.71,8.43Zm35.58,9.76c-6.29,0-11.92-4.56-15.05-11.32a36.18,36.18,0,0,0,8.22,1h.09A36.1,36.1,0,0,0,438,417.57a39.11,39.11,0,0,0,6.15,14ZM42.89,179.46c0,.62,0,1.23,0,1.84q-.57-1.43-1.08-2.91c-.15-.41-.29-.83-.43-1.28s-.26-.79-.39-1.24c-.44-1.44-.83-2.93-1.17-4.42l0-.2c0-.22-.09-.44-.15-.7l0-.16c-.06-.24-.11-.49-.16-.72l0-.1c-.05-.27-.1-.54-.14-.81l0-.17c-.13-.64-.23-1.28-.33-2s-.18-1.2-.26-1.85c-.19-1.54-.33-3.1-.41-4.64l-.06-1.5v-.1c0-.64,0-1.29,0-1.94,0-39.79,35.33-72.16,78.73-72.16,7.41,0,14.84.4,22.06,1.1,7.43.73,14.77,1.81,21.82,3.21,37.66,7.53,71.22,8.78,99.74,3.73L274.41,90l.27-.05c28.24-6.21,87-9.39,90.58-9.58a96,96,0,0,1,95.87,96v19.46c0,14.74-6.19,43.72-17.44,81.62-6.44,21.73-6.13,76.62.56,97.93l.29.88a24.34,24.34,0,0,1-3.48,22.12,23.24,23.24,0,0,1-19,9.78H422a23.94,23.94,0,0,1-22.28-15.53l-10.4-27.95c-1.23-3.3-2.4-7-3.49-11.11-.22-.77-.42-1.56-.61-2.35l0-.15c-.09-.35-.18-.69-.26-1l0-.1c-.15-.6-.3-1.21-.44-1.82l-.17-.77c-.2-.84-.39-1.68-.57-2.56q-.57-2.67-1.09-5.42c-.18-.91-.34-1.83-.51-2.77s-.33-1.87-.48-2.78l-.24-1.5c-.16-.95-.3-1.91-.45-2.86s-.29-2-.44-3c-.12-.82-.23-1.63-.34-2.46l-.05-.44c-.18-1.37-.36-2.75-.52-4.14l0-.39c-.12-1-.24-2-.34-3a396.35,396.35,0,0,1-2.16-50.26c0-1.12.05-2.23.09-3.34v-.18c0-1.19.08-2.37.14-3.59a220,220,0,0,1,3.74-34.16l6.4-31a6.51,6.51,0,0,0-5.06-7.68h0a6.51,6.51,0,0,0-7.68,5l-2,9.73a57.94,57.94,0,0,0-27.57-24.3,63.85,63.85,0,0,0-10.49-2.87,6.51,6.51,0,0,0-7.77,5.47h0a6.5,6.5,0,0,0,5.15,7.27,52.24,52.24,0,0,1,8.13,2.13c9.74,4,22.37,13.41,27.87,35A225.38,225.38,0,0,0,364.64,252c-59.05,8.44-113.32-10.2-126.5-15.22,0-.19-.07-.38-.11-.57-.21-1.05-.43-2.07-.65-3.12a20.56,20.56,0,0,1-.48-4.42,20.84,20.84,0,0,1,4.28-12.61l5.1-6.66a6.5,6.5,0,0,0-1.21-9.11h0a6.51,6.51,0,0,0-9.11,1.2l-5.1,6.66a33.72,33.72,0,0,0-6.19,27.68c.21,1,.42,2,.62,2.94,1.39,7,2.55,15.2,3.46,24.3l0,.19c0,.12,0,.24,0,.36.11,1.11.22,2.24.32,3.47.09.86.16,1.73.23,2.61l0,.23c0,.18,0,.36.05.63.12,1.41.23,2.85.33,4.3V275l0,.34v.15c.09,1.27.18,2.55.26,3.85.05.91.1,1.82.15,2.78.05.8.09,1.6.13,2.48s.09,1.56.12,2.34v.11c.07,1.27.12,2.56.17,3.85.17,4.47.28,8.9.34,13.2,0,1.63,0,3.25.05,4.86v.24c.15,28.07-1.81,54.39-5.35,72.18l-.11.57a28.47,28.47,0,0,1-27.91,22.89,28.46,28.46,0,0,1-28.33-31.1l.57-6.54c.71-8.24,1-17.92,1-28.82l0-2.2c0-1.19,0-2.4-.06-3.57v-.16c0-.55,0-1.1,0-1.65,0-.71,0-1.42-.05-2.15-.05-1.71-.1-3.42-.17-5.14-.09-2.45-.2-5-.34-7.48l-.05-.87c0-.59-.06-1.19-.1-1.78-.05-1.08-.12-2.16-.19-3.21s-.12-1.91-.19-2.87v-.27c-.17-2.29-.34-4.57-.53-6.85-.08-1-.16-2.08-.26-3.12-.1-1.28-.22-2.56-.35-3.85q-.27-2.85-.58-5.75l-.76-6.66c0-.32-.07-.64-.11-.95-.09-.8-.19-1.59-.3-2.38-.13-1-.26-2.05-.4-3.09l0-.15c-.25-1.86-.51-3.72-.79-5.56-.19-1.31-.39-2.61-.59-3.86-.14-1-.3-1.91-.46-2.9l-.57-3.3c-.11-.66-.22-1.31-.34-2,0-.23-.09-.46-.13-.69-.08-.47-.17-.93-.26-1.4l-.06-.29c-.21-1.18-.44-2.34-.67-3.48l0-.12c-.1-.56-.21-1.11-.32-1.6l-.12-.61c-.13-.62-.26-1.25-.39-1.82-.19-.88-.38-1.75-.56-2.53,0-.21-.09-.42-.14-.63l-.11-.48c-.17-.77-.35-1.54-.53-2.25-.69-2.9-1.43-5.69-2.19-8.38C177.91,221,191,201.5,191,179.46c0-1.14-.05-2.29-.12-3.43a21.52,21.52,0,0,0-.67-6.25l-.23-.88a62.44,62.44,0,0,0-2.19-8.37c-.18-.61-.38-1.21-.61-1.8C180,139,163.77,122.61,147.77,122c-6.78-.27-11.55,2.21-15.76,4.4s-7.88,4.11-14.27,4.11h-.15c-6.54,0-10.24-2-14.51-4.33-4.07-2.19-8.65-4.66-15.08-4.66h-.67C65.32,122.06,42.89,151.32,42.89,179.46ZM172,177.09a6.18,6.18,0,0,0-11.71,3.23l-3.49-1.47a8.61,8.61,0,0,1-5.34-6.84,8.23,8.23,0,0,1,4.13-8.24l7.61-4.38a8.3,8.3,0,0,1,4.17-1.13,8.54,8.54,0,0,1,4.2,1.13,8.73,8.73,0,0,1,4,5.42l1.81,7c.24,1.39.42,2.78.54,4.19a8.18,8.18,0,0,1-2.85,5.46,8.35,8.35,0,0,1-3.47,1.81A6.17,6.17,0,0,0,172,177.09ZM56.8,172.77l2.13-8.23h0a3.75,3.75,0,0,1,.68-2.17A9.12,9.12,0,0,1,67,158.26a8.3,8.3,0,0,1,4.17,1.13l7.35,4.23A8.64,8.64,0,0,1,83,171.08a8.24,8.24,0,0,1-5.13,7.66L75,180a6.09,6.09,0,0,0-1-3.58,6.18,6.18,0,0,0-11,5.26,5.9,5.9,0,0,0,.9,1.81,8.33,8.33,0,0,1-4.72-2.25A8.62,8.62,0,0,1,56.8,172.77Zm63.72,29h0a4.49,4.49,0,1,1,.46-4.72A4.4,4.4,0,0,1,120.52,201.79Zm2.93,28.07V215.31a17.36,17.36,0,0,0,7.42-5.65h0a17.5,17.5,0,1,0-20.42,5.65v13.22a85.89,85.89,0,0,1-13.7-2.15l-.14,0c-.3-.06-.6-.14-.89-.22l-.25-.06a5,5,0,0,1-.52-.14l-.27-.07c-1.56-.42-3.16-.9-4.73-1.43l-.13,0c-.46-.14-.91-.31-1.37-.47s-.78-.28-1.26-.47l-.16-.06c-.32-.11-.64-.23-.94-.36l-.18-.07c-.41-.16-.82-.32-1.24-.5-11.83-6.14-21-15.55-25.52-26.7a21,21,0,0,0,5.64.78,21.52,21.52,0,0,0,8.32-1.69l9.37-3.93a21.81,21.81,0,0,0,13.34-17A21.27,21.27,0,0,0,85.3,152.5l-7.6-4.38a21.38,21.38,0,0,0-8.31-2.73c5.74-6.54,12.44-10.76,18.28-10.91H88c3,0,5.15,1.09,8.9,3.11,4.82,2.6,10.83,5.84,20.62,5.88h.21c9.58,0,15.51-3.09,20.28-5.58,3.88-2,6-3.07,9.21-2.94,5.53.22,11.84,4.27,17.31,10.5a21.5,21.5,0,0,0-7.88,2.68l-7.2,4.15a21.78,21.78,0,0,0-11.11,18.57,21.28,21.28,0,0,0,13.1,19.89l9.8,4.11a21.51,21.51,0,0,0,8.31,1.69,21.17,21.17,0,0,0,5.14-.65C167.14,214.15,147.33,227.74,123.45,229.85Z"/></g></svg>